<svg width="182" height="53" viewBox="0 0 182 53" fill="none" xmlns="http://www.w3.org/2000/svg">
<path d="M75.5455 22.5455C75.4091 21.3939 74.8561 20.5 73.8864 19.8636C72.9167 19.2273 71.7273 18.9091 70.3182 18.9091C69.2879 18.9091 68.3864 19.0758 67.6136 19.4091C66.8485 19.7424 66.25 20.2008 65.8182 20.7841C65.3939 21.3674 65.1818 22.0303 65.1818 22.7727C65.1818 23.3939 65.3295 23.928 65.625 24.375C65.928 24.8144 66.3144 25.1818 66.7841 25.4773C67.2538 25.7652 67.7462 26.0038 68.2614 26.1932C68.7765 26.375 69.25 26.5227 69.6818 26.6364L72.0455 27.2727C72.6515 27.4318 73.3258 27.6515 74.0682 27.9318C74.8182 28.2121 75.5341 28.5947 76.2159 29.0795C76.9053 29.5568 77.4735 30.1705 77.9205 30.9205C78.3674 31.6705 78.5909 32.5909 78.5909 33.6818C78.5909 34.9394 78.2614 36.0758 77.6023 37.0909C76.9508 38.1061 75.9962 38.9129 74.7386 39.5114C73.4886 40.1098 71.9697 40.4091 70.1818 40.4091C68.5152 40.4091 67.072 40.1402 65.8523 39.6023C64.6402 39.0644 63.6856 38.3144 62.9886 37.3523C62.2992 36.3902 61.9091 35.2727 61.8182 34H64.7273C64.803 34.8788 65.0985 35.6061 65.6136 36.1818C66.1364 36.75 66.7955 37.1742 67.5909 37.4545C68.3939 37.7273 69.2576 37.8636 70.1818 37.8636C71.2576 37.8636 72.2235 37.6894 73.0795 37.3409C73.9356 36.9848 74.6136 36.4924 75.1136 35.8636C75.6136 35.2273 75.8636 34.4848 75.8636 33.6364C75.8636 32.8636 75.6477 32.2348 75.2159 31.75C74.7841 31.2652 74.2159 30.8712 73.5114 30.5682C72.8068 30.2652 72.0455 30 71.2273 29.7727L68.3636 28.9545C66.5455 28.4318 65.1061 27.6856 64.0455 26.7159C62.9848 25.7462 62.4545 24.4773 62.4545 22.9091C62.4545 21.6061 62.8068 20.4697 63.5114 19.5C64.2235 18.5227 65.178 17.7652 66.375 17.2273C67.5795 16.6818 68.9242 16.4091 70.4091 16.4091C71.9091 16.4091 73.2424 16.678 74.4091 17.2159C75.5758 17.7462 76.5 18.4735 77.1818 19.3977C77.8712 20.322 78.2348 21.3712 78.2727 22.5455H75.5455ZM85.3608 33.6364L85.3153 30.3182H85.8608L93.4972 22.5455H96.8153L88.679 30.7727H88.4517L85.3608 33.6364ZM82.8608 40V16.7273H85.5426V40H82.8608ZM93.9517 40L87.1335 31.3636L89.0426 29.5L97.3608 40H93.9517ZM101.994 46.5455C101.54 46.5455 101.134 46.5076 100.778 46.4318C100.422 46.3636 100.176 46.2955 100.04 46.2273L100.722 43.8636C101.373 44.0303 101.949 44.0909 102.449 44.0455C102.949 44 103.392 43.7765 103.778 43.375C104.172 42.9811 104.532 42.3409 104.858 41.4545L105.358 40.0909L98.9034 22.5455H101.812L106.631 36.4545H106.812L111.631 22.5455H114.54L107.131 42.5455C106.797 43.447 106.384 44.1932 105.892 44.7841C105.4 45.3826 104.828 45.8258 104.176 46.1136C103.532 46.4015 102.805 46.5455 101.994 46.5455Z" fill="#fff"/>
<path d="M20 49H14.6667C8.77563 49 4 44.3477 4 38.609V22.263C4 18.6294 5.94829 15.2598 9.13811 13.3766L22.4714 5.50464C25.8696 3.49845 30.1304 3.49845 33.5285 5.50464L46.8619 13.3766C50.0517 15.2598 52 18.6294 52 22.263V38.609C52 44.3477 47.2243 49 41.3333 49H36M20 49V38.609C20 34.3048 23.5816 30.8158 28 30.8158C32.4184 30.8158 36 34.3048 36 38.609V49M20 49H36" stroke="#F87171" stroke-width="7.19" stroke-linecap="round" stroke-linejoin="round"/>
<path d="M121.818 40V16.7273H129.682C131.5 16.7273 132.992 17.0379 134.159 17.6591C135.326 18.2727 136.189 19.1174 136.75 20.1932C137.311 21.2689 137.591 22.4924 137.591 23.8636C137.591 25.2348 137.311 26.4508 136.75 27.5114C136.189 28.572 135.33 29.4053 134.17 30.0114C133.011 30.6098 131.53 30.9091 129.727 30.9091H123.364V28.3636H129.636C130.879 28.3636 131.879 28.1818 132.636 27.8182C133.402 27.4545 133.955 26.9394 134.295 26.2727C134.644 25.5985 134.818 24.7955 134.818 23.8636C134.818 22.9318 134.644 22.1174 134.295 21.4205C133.947 20.7235 133.39 20.1856 132.625 19.8068C131.86 19.4205 130.848 19.2273 129.591 19.2273H124.636V40H121.818ZM132.773 29.5455L138.5 40H135.227L129.591 29.5455H132.773ZM149.054 40.3636C147.372 40.3636 145.921 39.9924 144.702 39.25C143.49 38.5 142.554 37.4545 141.895 36.1136C141.243 34.7652 140.918 33.197 140.918 31.4091C140.918 29.6212 141.243 28.0455 141.895 26.6818C142.554 25.3106 143.471 24.2424 144.645 23.4773C145.827 22.7045 147.205 22.3182 148.781 22.3182C149.69 22.3182 150.588 22.4697 151.474 22.7727C152.361 23.0758 153.168 23.5682 153.895 24.25C154.622 24.9242 155.202 25.8182 155.634 26.9318C156.065 28.0455 156.281 29.4167 156.281 31.0455V32.1818H142.827V29.8636H153.554C153.554 28.8788 153.357 28 152.963 27.2273C152.577 26.4545 152.024 25.8447 151.304 25.3977C150.592 24.9508 149.751 24.7273 148.781 24.7273C147.713 24.7273 146.789 24.9924 146.009 25.5227C145.236 26.0455 144.641 26.7273 144.224 27.5682C143.808 28.4091 143.599 29.3106 143.599 30.2727V31.8182C143.599 33.1364 143.827 34.2538 144.281 35.1705C144.743 36.0795 145.384 36.7727 146.202 37.25C147.02 37.7197 147.971 37.9545 149.054 37.9545C149.759 37.9545 150.395 37.8561 150.963 37.6591C151.539 37.4545 152.035 37.1515 152.452 36.75C152.868 36.3409 153.19 35.8333 153.418 35.2273L156.009 35.9545C155.736 36.8333 155.277 37.6061 154.634 38.2727C153.99 38.9318 153.194 39.447 152.247 39.8182C151.3 40.1818 150.236 40.3636 149.054 40.3636ZM165.497 40.4091C164.391 40.4091 163.387 40.2008 162.486 39.7841C161.584 39.3598 160.868 38.75 160.338 37.9545C159.808 37.1515 159.543 36.1818 159.543 35.0455C159.543 34.0455 159.74 33.2348 160.134 32.6136C160.527 31.9848 161.054 31.4924 161.713 31.1364C162.372 30.7803 163.099 30.5152 163.895 30.3409C164.698 30.1591 165.505 30.0152 166.315 29.9091C167.376 29.7727 168.236 29.6705 168.895 29.6023C169.562 29.5265 170.046 29.4015 170.349 29.2273C170.66 29.053 170.815 28.75 170.815 28.3182V28.2273C170.815 27.1061 170.509 26.2348 169.895 25.6136C169.289 24.9924 168.368 24.6818 167.134 24.6818C165.853 24.6818 164.849 24.9621 164.122 25.5227C163.395 26.0833 162.884 26.6818 162.588 27.3182L160.043 26.4091C160.497 25.3485 161.103 24.5227 161.861 23.9318C162.626 23.3333 163.459 22.9167 164.361 22.6818C165.27 22.4394 166.164 22.3182 167.043 22.3182C167.603 22.3182 168.247 22.3864 168.974 22.5227C169.709 22.6515 170.418 22.9205 171.099 23.3295C171.789 23.7386 172.361 24.3561 172.815 25.1818C173.27 26.0076 173.497 27.1136 173.497 28.5V40H170.815V37.6364H170.679C170.497 38.0152 170.194 38.4205 169.77 38.8523C169.346 39.2841 168.781 39.6515 168.077 39.9545C167.372 40.2576 166.512 40.4091 165.497 40.4091ZM165.906 38C166.967 38 167.861 37.7917 168.588 37.375C169.323 36.9583 169.876 36.4205 170.247 35.7614C170.626 35.1023 170.815 34.4091 170.815 33.6818V31.2273C170.702 31.3636 170.452 31.4886 170.065 31.6023C169.687 31.7083 169.247 31.803 168.747 31.8864C168.255 31.9621 167.774 32.0303 167.304 32.0909C166.842 32.1439 166.467 32.1894 166.179 32.2273C165.482 32.3182 164.83 32.4659 164.224 32.6705C163.626 32.8674 163.141 33.1667 162.77 33.5682C162.406 33.9621 162.224 34.5 162.224 35.1818C162.224 36.1136 162.569 36.8182 163.259 37.2955C163.955 37.7652 164.838 38 165.906 38ZM181.074 16.7273V40H178.392V16.7273H181.074Z" fill="#F87171"/>
</svg>
